# xmcd
#
# Track frame offsets: 
#        150
#        16353
#        32525
#        49776
#        66083
#        89087
#        104942
#        118504
#        133334
#        152237
#        167024
#        186325
#        205944
#
# Disc length: 3004 seconds
#
# Revision: 0
# Processed by: cddbd v1.5.2PL0 Copyright (c) Steve Scherf et al.
# Submitted via: ExactAudioCopyFreeDBPlugin 1.0
#
DISCID=bf0bba0d
DTITLE=Cody Jinks - I'm Not the Devil
DYEAR=2016
DGENRE=Country
TTITLE0=The Same
TTITLE1=I'm Not the Devil
TTITLE2=No Gurantees
TTITLE3=No Words
TTITLE4=Give All You Can
TTITLE5=She's All Mine
TTITLE6=The Way I Am
TTITLE7=Chase That Song
TTITLE8=Heavy Load
TTITLE9=Grey
TTITLE10=Gaylor Creek Church
TTITLE11=Vampires
TTITLE12=Hand Me Down
EXTD=
EXTT0=
EXTT1=
EXTT2=
EXTT3=
EXTT4=
EXTT5=
EXTT6=
EXTT7=
EXTT8=
EXTT9=
EXTT10=
EXTT11=
EXTT12=
PLAYORDER=
